<?xml version="1.0" encoding="utf-8"?>
<!-- Generator: Adobe Illustrator 23.0.1, SVG Export Plug-In . SVG Version: 6.00 Build 0)  -->
<svg version="1.1" id="Layer_1" xmlns="http://www.w3.org/2000/svg" xmlns:xlink="http://www.w3.org/1999/xlink" x="0px" y="0px"
	 viewBox="0 0 300 82" style="enable-background:new 0 0 300 82;" xml:space="preserve">
<style type="text/css">
	.st0{fill:#7CB8EB;}
	.st1{fill:#CDEEF6;}
	.st2{fill:#4F83D1;}
	.st3{fill:#FFFFFF;}
	.st4{font-family:'BookmanOldStyle-BoldItalic';}
	.st5{font-size:25.2497px;}
	.st6{font-size:25.3059px;}
</style>
<g>
	<g id="Blue">
		<path class="st0" d="M28.2,42.1h10.7l10.7,14.7v12c0,2.2-1.8,4-4,4H21.5c-2.2,0-4-1.8-4-4v-12L28.2,42.1z"/>
		<path class="st1" d="M38.9,42.1c6,0,10.5,1.1,14.7,5.3l8,8c1.8,1.8,1.8,4.8,0,6.7c0,0,0,0,0,0c-1.8,1.8-4.8,1.8-6.7,0c0,0,0,0,0,0
			l-5.3-5.3L38.9,42.1z"/>
		<path class="st1" d="M28.2,42.1c-6,0-10.5,1.1-14.7,5.3l-8,8c-1.8,1.8-1.8,4.8,0,6.7c0,0,0,0,0,0c1.8,1.8,4.8,1.8,6.7,0
			c0,0,0,0,0,0l5.3-5.3L28.2,42.1z"/>
		<path class="st1" d="M54.9,24.7c0,10-9.5,18.7-21.5,18.7s-21.3-8.7-21.3-18.7S21.5,5.6,33.5,5.6S54.9,14.7,54.9,24.7z"/>
		<path class="st2" d="M29.2,37.4c-0.8,0-1.6-0.1-2.3-0.4c-1.2-0.4-2.4-1.1-3.4-2c-0.5-0.5-0.5-1.4,0-1.9c0.5-0.5,1.3-0.5,1.9,0
			c1.8,1.9,4.8,2.1,6.8,0.4v-3.4c0-0.7,0.6-1.3,1.3-1.3c0.7,0,1.3,0.6,1.3,1.3V34c0,0.4-0.1,0.7-0.4,0.9
			C33.1,36.5,31.2,37.3,29.2,37.4L29.2,37.4z"/>
		<path class="st2" d="M37.9,37.4c-2,0-3.9-0.9-5.3-2.4c-0.3-0.3-0.4-0.6-0.4-0.9v-3.9c0-0.7,0.6-1.3,1.3-1.3c0.7,0,1.3,0.6,1.3,1.3
			v3.4c1.2,1.2,2.9,1.6,4.5,1c0.9-0.3,1.6-0.8,2.3-1.4c0.5-0.5,1.4-0.5,1.9,0c0.5,0.5,0.5,1.3,0,1.9c-1,0.9-2.1,1.6-3.4,2
			C39.4,37.3,38.7,37.4,37.9,37.4L37.9,37.4z"/>
		<path class="st2" d="M26.8,16.7h2.7v2.7h-2.7V16.7z"/>
		<path class="st2" d="M37.5,16.7h2.7v2.7h-2.7V16.7z"/>
		<path class="st3" d="M38.9,54v-3.9H28.2v4c-0.2,2.8,1.9,5.2,4.7,5.4c0.3,0,0.7,0,1,0C36.8,59.3,38.9,56.9,38.9,54z"/>
		<path class="st2" d="M24.2,24.7h-6.7c-0.7,0-1.3-0.6-1.3-1.3s0.6-1.3,1.3-1.3h6.7c0.7,0,1.3,0.6,1.3,1.3S24.9,24.7,24.2,24.7z"/>
		<path class="st2" d="M24.2,30.1h-6.7c-0.7,0-1.3-0.6-1.3-1.3s0.6-1.3,1.3-1.3h6.7c0.7,0,1.3,0.6,1.3,1.3S24.9,30.1,24.2,30.1z"/>
		<path class="st2" d="M49.6,24.7h-6.7c-0.7,0-1.3-0.6-1.3-1.3s0.6-1.3,1.3-1.3h6.7c0.7,0,1.3,0.6,1.3,1.3S50.3,24.7,49.6,24.7z"/>
		<path class="st2" d="M49.6,30.1h-6.7c-0.7,0-1.3-0.6-1.3-1.3s0.6-1.3,1.3-1.3h6.7c0.7,0,1.3,0.6,1.3,1.3S50.3,30.1,49.6,30.1z"/>
		<path class="st1" d="M28.2,63.5L28.2,63.5c3,0,5.3,2.4,5.3,5.3v5.3c0,3-2.4,5.3-5.3,5.3l0,0c-3,0-5.3-2.4-5.3-5.3v-5.3
			C22.8,65.9,25.2,63.5,28.2,63.5z"/>
		<path class="st1" d="M38.9,63.5L38.9,63.5c3,0,5.3,2.4,5.3,5.3v5.3c0,3-2.4,5.3-5.3,5.3l0,0c-3,0-5.3-2.4-5.3-5.3v-5.3
			C33.5,65.9,35.9,63.5,38.9,63.5z"/>
		<path class="st2" d="M26.8,63.5h2.7v4h-2.7V63.5z"/>
		<path class="st2" d="M37.5,63.5h2.7v4h-2.7V63.5z"/>
		<path class="st0" d="M38.9,11.4l5.3-6.7c1.3-1.6,3.3-2.6,5.3-2.7c2.5,0.1,4.8,1,6.7,2.7l8,8c1.8,1.8,1.8,4.8,0,6.7c0,0,0,0,0,0
			c-1.8,1.8-4.8,1.8-6.7,0c0,0,0,0,0,0l-9.4-8H38.9z"/>
		<path class="st0" d="M28.2,11.4l-5.3-6.7c-1.3-1.6-3.3-2.6-5.3-2.7c-2.5,0.1-4.8,1-6.7,2.7l-8,8c-1.8,1.8-1.8,4.8,0,6.7
			c0,0,0,0,0,0c1.8,1.8,4.8,1.8,6.7,0c0,0,0,0,0,0l9.4-8H28.2z"/>
		<path class="st0" d="M34.9,28.8c-0.6,0.7-1.7,0.9-2.4,0.2c-0.1-0.1-0.2-0.2-0.2-0.2l-1.3-1.3c-1.3-1.3-1.3-4,0-4h5.3
			c1.3,0,1.3,2.7,0,4L34.9,28.8z"/>
		<g>
			<path class="st2" d="M41.6,33.1c-0.7,0.6-1.5,1.1-2.3,1.4c-1.6,0.5-3.3,0.2-4.5-1v-3.1c0.3-0.2,0.7-0.4,0.9-0.7l1.3-1.3
				c1.3-1.3,1.7-3.1,1.1-4.8c-0.3-0.9-1.2-1.5-2.1-1.5h-5.3c-0.9,0-1.8,0.6-2.1,1.5c-0.6,1.7-0.1,3.6,1.1,4.8l1.3,1.3
				c0.3,0.3,0.6,0.5,0.9,0.7v3.1c-2,1.7-5,1.6-6.8-0.4c-0.5-0.5-1.4-0.5-1.9,0c-0.5,0.5-0.5,1.3,0,1.9c1,0.9,2.1,1.6,3.4,2
				c0.7,0.3,1.5,0.4,2.3,0.4c1.6,0,3.1-0.6,4.3-1.6c1.2,1,2.8,1.6,4.3,1.6c0.8,0,1.6-0.1,2.3-0.4c1.2-0.4,2.4-1.1,3.4-2
				c0.5-0.5,0.5-1.4,0-1.9C43,32.6,42.2,32.6,41.6,33.1L41.6,33.1z M33.1,27.8l-1.3-1.3c-0.4-0.5-0.6-1.1-0.6-1.7h4.7
				c0,0.6-0.2,1.3-0.6,1.7l-1.3,1.3C33.6,28.1,33.5,28.1,33.1,27.8z"/>
			<path class="st2" d="M26.8,16.7h2.7v2.7h-2.7V16.7z"/>
			<path class="st2" d="M37.5,16.7h2.7v2.7h-2.7V16.7z"/>
			<path class="st2" d="M26.8,50.1v4c-0.2,3.5,2.5,6.5,6,6.7c0.2,0,0.4,0,0.7,0c0.2,0,0.3,0,0.5,0c3.6-0.2,6.3-3.2,6.2-6.8v-3.9
				c0-0.7-0.6-1.3-1.3-1.3H28.2C27.4,48.8,26.8,49.4,26.8,50.1z M29.5,51.5h8V54c0,2.1-1.6,3.9-3.7,4.1c-1.2,0.1-2.3-0.2-3.2-1
				c-0.8-0.8-1.2-1.9-1.1-3L29.5,51.5z"/>
			<path class="st2" d="M17.5,24.7h6.7c0.7,0,1.3-0.6,1.3-1.3s-0.6-1.3-1.3-1.3h-6.7c-0.7,0-1.3,0.6-1.3,1.3S16.7,24.7,17.5,24.7z"
				/>
			<path class="st2" d="M25.5,28.8c0-0.7-0.6-1.3-1.3-1.3h-6.7c-0.7,0-1.3,0.6-1.3,1.3s0.6,1.3,1.3,1.3h6.7
				C24.9,30.1,25.5,29.5,25.5,28.8z"/>
			<path class="st2" d="M42.9,22.1c-0.7,0-1.3,0.6-1.3,1.3s0.6,1.3,1.3,1.3h6.7c0.7,0,1.3-0.6,1.3-1.3s-0.6-1.3-1.3-1.3H42.9z"/>
			<path class="st2" d="M49.6,27.4h-6.7c-0.7,0-1.3,0.6-1.3,1.3s0.6,1.3,1.3,1.3h6.7c0.7,0,1.3-0.6,1.3-1.3S50.3,27.4,49.6,27.4z"/>
			<path class="st2" d="M60.9,22.1c3.3,0,6.1-2.7,6.1-6.1c0-1.6-0.6-3.2-1.8-4.3l-8-8c-2.1-1.9-4.8-3-7.6-3.1
				c-2.4,0.1-4.7,1.2-6.3,3.1c0,0-0.1,0.1-0.1,0.1l-1.5,1.9c-5.3-1.9-11.1-1.9-16.3,0l-1.5-1.8c0,0-0.1-0.1-0.1-0.1
				c-1.6-1.8-3.9-2.9-6.3-3.1C14.7,0.8,12,1.9,9.9,3.7l-8,8c-2.4,2.4-2.4,6.2,0,8.6c1.1,1.1,2.7,1.8,4.3,1.8c1.6,0,3.1-0.6,4.2-1.7
				l1.4-1.2c-0.6,1.8-0.9,3.6-0.9,5.5c0.2,7,4.1,13.4,10.3,16.8c-3.3,0.8-6.2,2.5-8.5,5l-8,8c-2.4,2.4-2.4,6.2,0,8.6
				c2.4,2.4,6.2,2.4,8.6,0l0,0l3-3v8.8c0,3,2.4,5.3,5.3,5.3c0,3.7,3,6.7,6.6,6.7c2.1,0,4.1-1,5.4-2.7c2.2,3,6.4,3.6,9.3,1.4
				c1.7-1.3,2.7-3.3,2.7-5.4c3,0,5.3-2.4,5.3-5.3v-8.8l3,3c2.4,2.4,6.2,2.4,8.6,0c0,0,0,0,0,0c2.4-2.4,2.4-6.2,0-8.5c0,0,0,0,0,0
				l-8-8c-2.4-2.5-5.4-4.2-8.7-5c6.2-3.6,10.4-9.8,10.4-16.8c0-1.9-0.3-3.7-0.9-5.5l1.3,1.1C57.8,21.5,59.3,22.1,60.9,22.1
				L60.9,22.1z M8.5,18.4c-1.3,1.3-3.5,1.3-4.8-0.1c-1.3-1.3-1.3-3.4,0-4.7l8-8c1.6-1.4,3.6-2.2,5.7-2.3c1.7,0.1,3.3,0.9,4.4,2.2
				l3.6,4.5h-6.6c-0.3,0-0.6,0.1-0.9,0.3L8.5,18.4z M16.5,55.9l-5.2,5.3c-1.3,1.3-3.5,1.3-4.8,0c-1.3-1.3-1.3-3.4,0-4.8c0,0,0,0,0,0
				l8-8c2.9-3,6.9-4.8,11.1-4.9L16.5,55.9z M32.2,74.2c0,2.2-1.8,4-4,4s-4-1.8-4-4v-5.3c0-1.7,1.1-3.2,2.7-3.8v2.4h2.7v-2.4
				c1.6,0.6,2.7,2.1,2.7,3.8V74.2z M42.9,74.2c0,2.2-1.8,4-4,4c-2.2,0-4-1.8-4-4v-5.3c0-1.7,1.1-3.2,2.7-3.8v2.4h2.7v-2.4
				c1.6,0.6,2.7,2.1,2.7,3.8V74.2z M48.2,68.9c0,1.5-1.2,2.7-2.7,2.7v-2.7c0-3.7-3-6.7-6.6-6.7c-2.1,0-4.1,1-5.4,2.7
				c-2.2-3-6.4-3.6-9.3-1.4c-1.7,1.3-2.7,3.3-2.7,5.4v2.7c-1.5,0-2.7-1.2-2.7-2.7V57.2l9.4-13c1.7,0.4,3.4,0.5,5.2,0.6
				c1.8,0,3.6-0.2,5.3-0.6l9.5,13V68.9z M52.6,48.4l8,8c1.3,1.3,1.3,3.4,0,4.8c0,0,0,0,0,0c-1.3,1.3-3.4,1.3-4.8,0l-5.2-5.3l-9-12.4
				C45.8,43.6,49.7,45.4,52.6,48.4L52.6,48.4z M33.4,42.1c-11,0-20-7.8-20-17.4c0.1-3.8,1.4-7.4,3.8-10.3l2-1.7h8.9
				c0.7,0,1.3-0.6,1.3-1.3c0-0.3-0.1-0.6-0.3-0.8l-2.1-2.6c4.2-1.3,8.6-1.3,12.8,0l-2.1,2.6c-0.5,0.6-0.4,1.4,0.2,1.9
				c0.2,0.2,0.5,0.3,0.8,0.3h8.9l1.9,1.6c2.5,2.9,3.9,6.6,4,10.4C53.6,34.2,44.4,42.1,33.4,42.1L33.4,42.1z M49.1,10.4
				c-0.2-0.2-0.6-0.3-0.9-0.3h-6.6l3.6-4.5c1.1-1.3,2.7-2.1,4.4-2.2c2.1,0.1,4.1,0.9,5.7,2.3l8,8c1.3,1.3,1.3,3.5,0,4.8
				c-1.3,1.3-3.5,1.3-4.8,0c0,0-0.1-0.1-0.1-0.1L49.1,10.4z"/>
		</g>
	</g>
	<text transform="matrix(2.9754 0 0 1 76.9043 31.5107)" class="st0 st4 st5">BABY</text>
	<text transform="matrix(2.5709 0 0 1 91.1787 63.3408)" class="st0 st4 st6">SHOP</text>
</g>
</svg>
