<svg xmlns="http://www.w3.org/2000/svg" id="Group_1" width="139.272" height="41.5" viewBox="0 0 139.272 41.5">
    <defs>
        <style>
            .cls-1{fill:#fff}
        </style>
    </defs>
    <path id="Path_1" d="M791.638 476.131l-.023-.024-.02.024-24.021-.023-.037 41.5h41.5l.039-41.461zm16.5 25.8c-1.607-.668-3.834-1.655-5.462-2.381-8.521-3.8-13.454-7.4-13.454-14.524a12.075 12.075 0 0 1 2.942-7.994l16.006.015zm-15.913 14.799a10.476 10.476 0 0 1-2.97-5.677H788.2a11.658 11.658 0 0 0 2.605 5.675l-22.364-.024.04-5.808h8.92a7.432 7.432 0 0 0 7.425-7.424 7.708 7.708 0 0 0-5.349-7.214l-.243-.081.223-.127a7.212 7.212 0 0 0-3.591-13.468l-7.424-.039.04-5.531 22.328.023a13.436 13.436 0 0 0-2.626 8c0 7.685 5.159 11.492 14.067 15.468 1.769.791 4.249 1.889 5.884 2.557l-.021 13.693zM777.4 497.089a6.384 6.384 0 0 1 0 12.767l-8.959-.039v-12.728zm-8.959-1.154v-12.313h7.424a6.176 6.176 0 1 1 0 12.352z" class="cls-1" transform="translate(-767.536 -476.107)"/>
    <path id="Path_4" d="M925.027 502.326v-12.251a.092.092 0 0 1 .092-.092h4.951c2.012 0 3.475 1.031 3.475 3.285a3.191 3.191 0 0 1-1.648 2.672c-.1.069-.223.1-.087.134a2.879 2.879 0 0 1 2.372 2.87c.05 2.166-1.273 3.473-3.818 3.473h-5.244a.091.091 0 0 1-.092-.092m4.581-6.331c1.862 0 2.5-1.269 2.5-2.768 0-2.1-1.038-2.791-2.284-2.791h-3.281c-.1 0-.142-.007-.142.133v5.266c0 .139.031.161.131.161zm.187 5.985c1.437 0 2.962-.537 2.962-2.783 0-1.783-.648-2.763-2.394-2.763h-3.825c-.1 0-.137.022-.137.154v5.232c0 .131.029.159.131.159z" class="cls-1" transform="translate(-867.822 -484.943)"/>
    <path id="Path_5" d="M968.376 490.1l5.056 11.938c.066.157.081.206-.039.206h-1.245c-.085 0-.12-.034-.154-.12l-1.235-2.86c-.034-.086-.073-.1-.16-.1l-6.411.041c-.085 0-.119.007-.153.092l-1.211 2.828c-.046.1-.078.12-.166.12h-.338c-.122 0-.191-.047-.139-.167l5.077-11.976a.156.156 0 0 1 .164-.12h.778a.171.171 0 0 1 .177.12m2.024 8.371l-2.886-6.976a.125.125 0 0 0-.241 0l-2.926 6.976c-.052.121-.02.173.1.173h5.891c.12 0 .112-.053.061-.173" class="cls-1" transform="translate(-891.469 -484.942)"/>
    <path id="Path_6" d="M1126.013 490.1l5.057 11.938c.065.157.08.206-.041.206h-1.243c-.087 0-.121-.034-.155-.12l-1.235-2.86c-.035-.086-.075-.1-.161-.1l-6.411.041c-.085 0-.119.007-.152.092l-1.211 2.828c-.047.1-.079.12-.167.12h-.339c-.12 0-.189-.047-.139-.167l5.076-11.976a.156.156 0 0 1 .164-.12h.778a.174.174 0 0 1 .178.12m2.023 8.371l-2.885-6.976a.125.125 0 0 0-.241 0l-2.927 6.976c-.051.121-.019.173.1.173h5.891c.12 0 .111-.053.059-.173" class="cls-1" transform="translate(-991.847 -484.942)"/>
    <path id="Path_7" d="M1008.836 490.434l-.159-.273c-.081-.119-.128-.179-.268-.179h-7.2c-.138 0-.187.06-.267.179l-.159.273c-.118.2.034.231.138.231h3.013a.163.163 0 0 1 .172.173v11.236a.162.162 0 0 0 .172.172h1.063a.163.163 0 0 0 .172-.172v-11.235a.163.163 0 0 1 .173-.173h3.012c.1 0 .257-.027.138-.231" class="cls-1" transform="translate(-916.034 -484.942)"/>
    <path id="Path_8" d="M1045.883 496.015a5.955 5.955 0 1 1-5.952-6.175 5.847 5.847 0 0 1 5.952 6.175m-10.453 0c0 4.077 1.818 5.767 4.5 5.767s4.49-1.649 4.49-5.767c0-4.062-1.807-5.658-4.49-5.658s-4.5 1.636-4.5 5.658" class="cls-1" transform="translate(-937.2 -484.852)"/>
    <path id="Path_9" d="M1089.849 502.2l-4.595-5.6c-.083-.1-.167-.069-.233 0l-1.693 1.877a.226.226 0 0 0-.084.207v3.388a.16.16 0 0 1-.166.172h-1a.16.16 0 0 1-.166-.172v-11.918a.16.16 0 0 1 .166-.173h1a.16.16 0 0 1 .166.173v7.061c0 .156.1.207.2.087l6.514-7.216a.264.264 0 0 1 .2-.1h.424c.134 0 .184.1.1.207l-4.58 5.209a.188.188 0 0 0 0 .241l5.261 6.459c.084.1.034.206-.1.206h-1.2a.241.241 0 0 1-.216-.1" class="cls-1" transform="translate(-967.72 -484.942)"/>
    <path id="Path_10" d="M1076.615 555.661l-3.04-5.749a.167.167 0 0 0-.152-.09h-2.666a.112.112 0 0 0-.112.111v5.649a.171.171 0 0 1-.172.172h-1.064a.173.173 0 0 1-.172-.172v-11.753a.173.173 0 0 1 .172-.172h3.994c2.828 0 3.745 1.153 3.745 2.976 0 1.7-.882 3.033-3.354 3.17l.174.336h1.145a.168.168 0 0 1 .153.093l2.7 5.272a.172.172 0 0 1-.154.25h-1.043a.169.169 0 0 1-.151-.092m-.929-8.994c0-1.621-.6-2.779-2.707-2.76h-2.161a.173.173 0 0 0-.172.172v5.381a.112.112 0 0 0 .112.111h2.024c2.156 0 2.9-1.14 2.9-2.9" class="cls-1" transform="translate(-959.651 -519.121)"/>
    <path id="Path_11" d="M1109.018 543.659h1.065a.137.137 0 0 1 .138.136v11.822a.138.138 0 0 1-.138.137h-1.065a.136.136 0 0 1-.136-.137V543.8a.136.136 0 0 1 .136-.136" class="cls-1" transform="translate(-984.895 -519.122)"/>
    <path id="Path_12" d="M963.015 543.832l4.8 11.749c.063.156.077.2-.038.2h-1.18c-.081 0-.114-.034-.147-.119l-1.17-2.814c-.033-.085-.07-.1-.152-.1l-6.08.039c-.081 0-.112.007-.146.092l-1.147 2.782c-.045.1-.076.119-.158.119h-.321c-.115 0-.181-.047-.133-.165l4.816-11.786a.148.148 0 0 1 .154-.118h.739a.161.161 0 0 1 .168.118m1.92 8.239l-2.74-6.868a.118.118 0 0 0-.229 0l-2.771 6.87c-.049.119-.02.171.093.171h5.59c.114 0 .106-.052.057-.171" class="cls-1" transform="translate(-888.259 -519.157)"/>
    <path id="Path_13" d="M1032.553 543.832l4.8 11.749c.062.156.077.2-.038.2h-1.18c-.081 0-.113-.034-.147-.119l-1.17-2.814c-.032-.085-.07-.1-.151-.1l-6.08.039c-.083 0-.112.007-.147.092l-1.147 2.782c-.045.1-.076.119-.158.119h-.321c-.115 0-.181-.047-.134-.165l4.816-11.786a.149.149 0 0 1 .155-.118h.739a.162.162 0 0 1 .168.118m1.92 8.239l-2.736-6.865a.118.118 0 0 0-.229 0l-2.775 6.865c-.05.119-.02.171.093.171h5.589c.114 0 .106-.052.057-.171" class="cls-1" transform="translate(-932.538 -519.157)"/>
    <path id="Path_14" d="M1006.177 543.657h-6.382a.1.1 0 0 0-.1.1v11.9a.1.1 0 0 0 .1.1h1.235a.1.1 0 0 0 .1-.1v-5.784a.1.1 0 0 1 .1-.1h4.187a.094.094 0 0 0 .094-.095v-.326a.094.094 0 0 0-.094-.094h-.752c-.856 0-2.214-.012-3.433 0a.1.1 0 0 1-.1-.1v-4.884a.1.1 0 0 1 .1-.1h4.951a.1.1 0 0 0 .095-.1v-.33a.1.1 0 0 0-.095-.1" class="cls-1" transform="translate(-915.369 -519.121)"/>
    <path id="Path_15" d="M1135.966 551.969v-.011a.084.084 0 0 0 0-.017c0-.018-.005-.038-.008-.053A2.651 2.651 0 0 0 1134.6 550c-1.25-.771-2.928-1.282-4.173-2.042-1.225-.751-1.536-1.336-1.472-2.417.088-1.457 1.287-2.021 2.851-2.026a6.358 6.358 0 0 1 2.866.774.607.607 0 0 0 .205.061.157.157 0 0 0 .11-.11l.016-.107c.017-.18-.057-.291-.3-.392a7.786 7.786 0 0 0-2.875-.664c-2.371 0-4.18.989-4.257 3.005a1.974 1.974 0 0 0 .047.677v.016a2.8 2.8 0 0 0 .126.4c.022.058.046.115.073.17a3.342 3.342 0 0 0 .169.3c.026.041.053.081.081.122a4.6 4.6 0 0 0 1.616 1.393s.467.269.724.407c.982.532 1.859.774 2.917 1.364a2.02 2.02 0 0 1 1.295 1.951 1.783 1.783 0 0 1-.234.9v.009a1.828 1.828 0 0 1-.247.325c-.033.035-.069.07-.108.106a2.229 2.229 0 0 1-.2.165c-.058.044-.114.087-.18.127s-.116.063-.175.092a4.546 4.546 0 0 1-2.261.438 5.009 5.009 0 0 1-2.534-.724 4.322 4.322 0 0 1-.888-.722c-.116-.118-.2-.1-.227.038l-.019.227a.42.42 0 0 0 .107.268l-.018-.01a4.344 4.344 0 0 0 2.208 1.246 5.2 5.2 0 0 0 1.4.2c.169 0 .337-.007.5-.016 2.417-.108 4.169-1.269 4.231-3.144a2.673 2.673 0 0 0-.012-.436" class="cls-1" transform="translate(-996.778 -518.753)"/>
    <path id="Path_16" d="M932.568 552.032v-.011a.108.108 0 0 1 0-.018c0-.018-.005-.038-.01-.053a2.65 2.65 0 0 0-1.354-1.886c-1.25-.771-2.927-1.281-4.171-2.042-1.226-.751-1.537-1.335-1.472-2.417.088-1.457 1.349-2.086 2.915-2.089a6.342 6.342 0 0 1 2.865.774.573.573 0 0 0 .206.06.151.151 0 0 0 .109-.11l.016-.106c.018-.18-.057-.291-.3-.392a7.79 7.79 0 0 0-2.875-.666c-2.37 0-4.181.991-4.257 3.007a1.991 1.991 0 0 0 .049.677v.016a2.655 2.655 0 0 0 .126.4c.021.057.046.114.072.169.049.1.106.2.168.3.028.042.054.083.083.123a4.6 4.6 0 0 0 1.617 1.392s.468.269.724.407c.984.532 1.859.773 2.918 1.364a2.017 2.017 0 0 1 1.293 1.951 1.788 1.788 0 0 1-.233.9v.008a1.829 1.829 0 0 1-.249.326c-.031.034-.068.069-.107.105a2.223 2.223 0 0 1-.2.165 2.18 2.18 0 0 1-.181.127c-.053.034-.115.061-.173.092a4.573 4.573 0 0 1-2.261.438 5.012 5.012 0 0 1-2.535-.724 4.3 4.3 0 0 1-.888-.724c-.115-.118-.2-.1-.226.039l-.02.227a.419.419 0 0 0 .108.268l-.018-.009a4.338 4.338 0 0 0 2.207 1.245 5.234 5.234 0 0 0 1.406.2c.169 0 .337-.005.5-.016 2.417-.107 4.1-1.2 4.168-3.08a2.618 2.618 0 0 0-.014-.435" class="cls-1" transform="translate(-867.301 -518.752)"/>
</svg>
